<mxfile host="app.diagrams.net" agent="Mozilla/5.0 (Windows NT 10.0; Win64; x64) AppleWebKit/537.36 (KHTML, like Gecko) Chrome/128.0.0.0 Safari/537.36 Edg/128.0.0.0" version="24.7.13">
  <diagram name="PÃ¡gina-1" id="akhmyVUSkxg6MOWgqmb-">
    <mxGraphModel dx="1426" dy="1918" grid="1" gridSize="10" guides="1" tooltips="1" connect="1" arrows="1" fold="1" page="1" pageScale="1" pageWidth="827" pageHeight="1169" math="0" shadow="0">
      <root>
        <mxCell id="0" />
        <mxCell id="1" parent="0" />
        <mxCell id="tplfgjnfRus46zhh2cio-1" value="SOMA OU MULTIPLICACAO" style="rounded=0;whiteSpace=wrap;html=1;" vertex="1" parent="1">
          <mxGeometry x="249" y="-1160" width="331" height="60" as="geometry" />
        </mxCell>
        <mxCell id="tplfgjnfRus46zhh2cio-17" style="edgeStyle=orthogonalEdgeStyle;rounded=0;orthogonalLoop=1;jettySize=auto;html=1;exitX=0.5;exitY=1;exitDx=0;exitDy=0;" edge="1" parent="1" source="tplfgjnfRus46zhh2cio-3" target="tplfgjnfRus46zhh2cio-5">
          <mxGeometry relative="1" as="geometry" />
        </mxCell>
        <mxCell id="tplfgjnfRus46zhh2cio-3" value="INICIO" style="ellipse;whiteSpace=wrap;html=1;aspect=fixed;" vertex="1" parent="1">
          <mxGeometry x="354.5" y="-1090" width="120" height="120" as="geometry" />
        </mxCell>
        <mxCell id="tplfgjnfRus46zhh2cio-5" value="A, B, C: INTEIRO" style="rounded=0;whiteSpace=wrap;html=1;" vertex="1" parent="1">
          <mxGeometry x="329.5" y="-950" width="170" height="60" as="geometry" />
        </mxCell>
        <mxCell id="tplfgjnfRus46zhh2cio-18" style="edgeStyle=orthogonalEdgeStyle;rounded=0;orthogonalLoop=1;jettySize=auto;html=1;exitX=0.5;exitY=1;exitDx=0;exitDy=0;" edge="1" parent="1" source="tplfgjnfRus46zhh2cio-6" target="tplfgjnfRus46zhh2cio-7">
          <mxGeometry relative="1" as="geometry" />
        </mxCell>
        <mxCell id="tplfgjnfRus46zhh2cio-6" value="ESCREVA O VALOR DE A" style="shape=manualInput;whiteSpace=wrap;html=1;" vertex="1" parent="1">
          <mxGeometry x="329.5" y="-860" width="170" height="80" as="geometry" />
        </mxCell>
        <mxCell id="tplfgjnfRus46zhh2cio-7" value="LEIA A" style="rounded=0;whiteSpace=wrap;html=1;" vertex="1" parent="1">
          <mxGeometry x="329.5" y="-760" width="170" height="60" as="geometry" />
        </mxCell>
        <mxCell id="tplfgjnfRus46zhh2cio-20" style="edgeStyle=orthogonalEdgeStyle;rounded=0;orthogonalLoop=1;jettySize=auto;html=1;exitX=0.5;exitY=1;exitDx=0;exitDy=0;" edge="1" parent="1" source="tplfgjnfRus46zhh2cio-8" target="tplfgjnfRus46zhh2cio-9">
          <mxGeometry relative="1" as="geometry" />
        </mxCell>
        <mxCell id="tplfgjnfRus46zhh2cio-8" value="ESCREVA O VALOR DE B" style="shape=manualInput;whiteSpace=wrap;html=1;" vertex="1" parent="1">
          <mxGeometry x="329.5" y="-680" width="170" height="80" as="geometry" />
        </mxCell>
        <mxCell id="tplfgjnfRus46zhh2cio-21" style="edgeStyle=orthogonalEdgeStyle;rounded=0;orthogonalLoop=1;jettySize=auto;html=1;exitX=0.5;exitY=1;exitDx=0;exitDy=0;" edge="1" parent="1" source="tplfgjnfRus46zhh2cio-9" target="tplfgjnfRus46zhh2cio-10">
          <mxGeometry relative="1" as="geometry" />
        </mxCell>
        <mxCell id="tplfgjnfRus46zhh2cio-9" value="LEIA B" style="rounded=0;whiteSpace=wrap;html=1;" vertex="1" parent="1">
          <mxGeometry x="329.5" y="-570" width="170" height="60" as="geometry" />
        </mxCell>
        <mxCell id="tplfgjnfRus46zhh2cio-10" value="SE A&amp;nbsp; =&amp;nbsp; B" style="rhombus;whiteSpace=wrap;html=1;" vertex="1" parent="1">
          <mxGeometry x="331.5" y="-470" width="166" height="120" as="geometry" />
        </mxCell>
        <mxCell id="tplfgjnfRus46zhh2cio-25" style="edgeStyle=orthogonalEdgeStyle;rounded=0;orthogonalLoop=1;jettySize=auto;html=1;exitX=0;exitY=0;exitDx=96.25;exitDy=40;exitPerimeter=0;entryX=0;entryY=0.5;entryDx=0;entryDy=0;" edge="1" parent="1" source="tplfgjnfRus46zhh2cio-11" target="tplfgjnfRus46zhh2cio-13">
          <mxGeometry relative="1" as="geometry" />
        </mxCell>
        <mxCell id="tplfgjnfRus46zhh2cio-11" value="C: A + B" style="shape=display;whiteSpace=wrap;html=1;" vertex="1" parent="1">
          <mxGeometry x="160" y="-350" width="170" height="40" as="geometry" />
        </mxCell>
        <mxCell id="tplfgjnfRus46zhh2cio-24" style="edgeStyle=orthogonalEdgeStyle;rounded=0;orthogonalLoop=1;jettySize=auto;html=1;exitX=0;exitY=0;exitDx=96.25;exitDy=40;exitPerimeter=0;entryX=1;entryY=0.5;entryDx=0;entryDy=0;" edge="1" parent="1" source="tplfgjnfRus46zhh2cio-12" target="tplfgjnfRus46zhh2cio-13">
          <mxGeometry relative="1" as="geometry" />
        </mxCell>
        <mxCell id="tplfgjnfRus46zhh2cio-12" value="C: A * B" style="shape=display;whiteSpace=wrap;html=1;" vertex="1" parent="1">
          <mxGeometry x="490" y="-350" width="170" height="40" as="geometry" />
        </mxCell>
        <mxCell id="tplfgjnfRus46zhh2cio-26" style="edgeStyle=orthogonalEdgeStyle;rounded=0;orthogonalLoop=1;jettySize=auto;html=1;exitX=0.5;exitY=1;exitDx=0;exitDy=0;" edge="1" parent="1" source="tplfgjnfRus46zhh2cio-13" target="tplfgjnfRus46zhh2cio-14">
          <mxGeometry relative="1" as="geometry" />
        </mxCell>
        <mxCell id="tplfgjnfRus46zhh2cio-13" value="FIM SE" style="ellipse;whiteSpace=wrap;html=1;aspect=fixed;" vertex="1" parent="1">
          <mxGeometry x="354.5" y="-300" width="120" height="120" as="geometry" />
        </mxCell>
        <mxCell id="tplfgjnfRus46zhh2cio-14" value="FIM" style="ellipse;whiteSpace=wrap;html=1;aspect=fixed;" vertex="1" parent="1">
          <mxGeometry x="354.5" y="-140" width="120" height="120" as="geometry" />
        </mxCell>
        <mxCell id="tplfgjnfRus46zhh2cio-16" style="edgeStyle=orthogonalEdgeStyle;rounded=0;orthogonalLoop=1;jettySize=auto;html=1;exitX=0.5;exitY=1;exitDx=0;exitDy=0;entryX=0.497;entryY=0.188;entryDx=0;entryDy=0;entryPerimeter=0;" edge="1" parent="1" source="tplfgjnfRus46zhh2cio-5" target="tplfgjnfRus46zhh2cio-6">
          <mxGeometry relative="1" as="geometry" />
        </mxCell>
        <mxCell id="tplfgjnfRus46zhh2cio-19" style="edgeStyle=orthogonalEdgeStyle;rounded=0;orthogonalLoop=1;jettySize=auto;html=1;exitX=0.5;exitY=1;exitDx=0;exitDy=0;entryX=0.515;entryY=0.213;entryDx=0;entryDy=0;entryPerimeter=0;" edge="1" parent="1" source="tplfgjnfRus46zhh2cio-7" target="tplfgjnfRus46zhh2cio-8">
          <mxGeometry relative="1" as="geometry" />
        </mxCell>
        <mxCell id="tplfgjnfRus46zhh2cio-22" style="edgeStyle=orthogonalEdgeStyle;rounded=0;orthogonalLoop=1;jettySize=auto;html=1;exitX=0;exitY=0.5;exitDx=0;exitDy=0;entryX=0;entryY=0;entryDx=96.25;entryDy=0;entryPerimeter=0;" edge="1" parent="1" source="tplfgjnfRus46zhh2cio-10" target="tplfgjnfRus46zhh2cio-11">
          <mxGeometry relative="1" as="geometry" />
        </mxCell>
        <mxCell id="tplfgjnfRus46zhh2cio-23" style="edgeStyle=orthogonalEdgeStyle;rounded=0;orthogonalLoop=1;jettySize=auto;html=1;exitX=1;exitY=0.5;exitDx=0;exitDy=0;entryX=0.641;entryY=-0.025;entryDx=0;entryDy=0;entryPerimeter=0;" edge="1" parent="1" source="tplfgjnfRus46zhh2cio-10" target="tplfgjnfRus46zhh2cio-12">
          <mxGeometry relative="1" as="geometry" />
        </mxCell>
      </root>
    </mxGraphModel>
  </diagram>
</mxfile>
